<svg width="367" height="585" viewBox="0 0 367 585" fill="none" xmlns="http://www.w3.org/2000/svg">
<path d="M222.5 257.5C306.5 257.5 364 192.5 364 132C364 71.5 306.5 3 222.5 3C138.5 3 89.5 76 89.5 132C89.5 188 138.5 257.5 222.5 257.5Z" fill="white"/>
<path d="M3 584.5C3 543.144 7.1609 506.241 14.4764 473.5C48.9076 319.401 153.22 257.5 222.5 257.5C68 257.5 3 331 3 407V584.5Z" fill="white"/>
<path d="M14.4764 473.5C39.3176 451.333 103.6 407 162 407C235 407 297.5 461.126 364 461.126C254 431.651 263.5 342.5 162 342.5C80.8 342.5 29.8176 429.833 14.4764 473.5Z" fill="white"/>
<path d="M3 584.5C3 519.5 3 465.8 3 407M3 584.5V407M3 584.5C3 543.144 7.1609 506.241 14.4764 473.5M222.5 257.5C306.5 257.5 364 192.5 364 132C364 71.5 306.5 3 222.5 3C138.5 3 89.5 76 89.5 132C89.5 188 138.5 257.5 222.5 257.5ZM222.5 257.5C68 257.5 3 331 3 407M222.5 257.5C153.22 257.5 48.9076 319.401 14.4764 473.5M14.4764 473.5C39.3176 451.333 103.6 407 162 407C235 407 297.5 461.126 364 461.126C254 431.651 263.5 342.5 162 342.5C80.8 342.5 29.8176 429.833 14.4764 473.5Z" stroke="white" stroke-width="5"/>
</svg>
