<svg width="438" height="433" viewBox="0 0 438 433" fill="none" xmlns="http://www.w3.org/2000/svg">
<path d="M222.5 0.500366C330.5 0.500366 438 85 438 218C438 380.5 289 433 222 433V388C222 379.5 215 367.5 203.5 367.5H149.5C145.5 367.5 133 367.5 133 352.5C133 338 145 338 149.5 338H239.5C246 338 252.5 333 252.5 325C252.5 317 246 313.5 239.5 313.5H28.5C22 313.5 13.5 309 13.5 300C13.5 292 17.5 285.5 28.5 285.5C38.1 285.5 145.5 285 202 285C207 285 214.5 280 214.5 273C214.5 266.5 209 261 202 261H75C65 261 59 253.5 59 246C59 238.5 62.5 231.5 76 231.5C93.2186 231.5 228.667 231.667 295 232C305.5 232.053 312 228.071 312 221C312 213.929 311 208 295 208C282.993 208 174.833 207.667 118.5 207.5C104 207.5 101 199.5 101 193C101 185.983 104 178.5 118.5 178.5C127.336 178.5 172.667 178.167 199.5 178C206.5 177.957 214.5 174.515 214.5 166C214.5 159.5 211 153.5 199.5 153.5H33C21 153.5 13 150.1 13 138.5C13 124 24 124 33 124C40.2111 124 173.667 123.334 237.5 123.5C248 123.5 253 118 253 111.5C253 105.5 249 99.5004 237.5 99.5004C230.653 99.5004 163.333 99.167 124.5 99.5004C113 99.5004 108 94.5004 108 84.5004C108 73.7004 116.5 70.5004 124.5 70.5004H203C212.5 70.5004 222.5 59.5004 222.5 53.5004V0.500366Z" fill="#E5FFEA"/>
<path d="M130.5 16.5H195C199.167 16.8333 207.5 20.2 207.5 31C207.5 41.8 199.167 45.1667 195 45.5H130.5C126.333 45.3333 118 42.2 118 31C118 19.8 126.333 16.6667 130.5 16.5Z" fill="#E5FFEA"/>
<path d="M12.5 178.5H62.5C66.6667 178.834 75 182.2 75 193C75 203.8 66.6667 207.167 62.5 207.5H12.5C8.33333 207.334 0 204.2 0 193C0 181.8 8.33333 178.667 12.5 178.5Z" fill="#E5FFEA"/>
<path d="M60.5 338H96.5C100.667 338.334 109 341.7 109 352.5C109 363.3 100.667 367.167 96.5 367.5H60.5C56.3333 367.334 48 363.7 48 352.5C48 341.3 56.3333 338.167 60.5 338Z" fill="#E5FFEA"/>
<path d="M145.5 391H194.5C198.667 391.333 207 394.7 207 405.5C207 416.3 198.667 420.167 194.5 420.5H145.5C141.333 420.333 133 416.7 133 405.5C133 394.3 141.333 391.167 145.5 391Z" fill="#E5FFEA"/>
<circle cx="19.5" cy="246.5" r="15.5" fill="#E5FFEA"/>
<circle cx="64.5" cy="84.5" r="15.5" fill="#E5FFEA"/>
</svg>
